<svg width="40" height="40" viewBox="0 0 40 40" fill="none" xmlns="http://www.w3.org/2000/svg">
<path d="M3.33331 33.3335H6.66665M6.66665 33.3335H16.6666M6.66665 33.3335V19.087C6.66665 18.1965 6.66665 17.751 6.77493 17.3366C6.87089 16.9693 7.02963 16.6218 7.24282 16.3077C7.48338 15.9534 7.81771 15.6595 8.48794 15.073L16.4906 8.07073C17.7331 6.98357 18.3543 6.43995 19.054 6.23304C19.671 6.05058 20.3286 6.05058 20.9456 6.23304C21.6458 6.44011 22.268 6.98423 23.5123 8.07304L31.5123 15.073C32.1825 15.6595 32.517 15.9534 32.7576 16.3077C32.9708 16.6218 33.1283 16.9693 33.2243 17.3366C33.3325 17.751 33.3333 18.1965 33.3333 19.087V33.3335M16.6666 33.3335H23.3333M16.6666 33.3335V26.6668C16.6666 24.8258 18.159 23.3335 20 23.3335C21.8409 23.3335 23.3333 24.8258 23.3333 26.6668V33.3335M23.3333 33.3335H33.3333M33.3333 33.3335H36.6666" stroke="#D9D9D9" stroke-width="3.33333" stroke-linecap="round" stroke-linejoin="round"/>
</svg>
