<svg width="186" height="186" viewBox="0 0 186 186" fill="none" xmlns="http://www.w3.org/2000/svg">
<path d="M57.125 88.4587V107.86C57.125 112.387 57.125 114.649 58.006 116.378C58.781 117.899 60.0167 119.137 61.5377 119.912C63.2651 120.792 65.5276 120.792 70.0458 120.792H116.954C121.472 120.792 123.732 120.792 125.459 119.912C126.98 119.137 128.22 117.899 128.995 116.378C129.875 114.651 129.875 112.391 129.875 107.873V88.4587M57.125 88.4587V80.3754M57.125 88.4587H129.875M57.125 80.3754V77.1429C57.125 72.6158 57.125 70.3505 58.006 68.6214C58.781 67.1004 60.0167 65.8647 61.5377 65.0898C63.2668 64.2087 65.532 64.2087 70.0591 64.2087H116.942C121.47 64.2087 123.73 64.2087 125.459 65.0898C126.98 65.8647 128.22 67.1004 128.995 68.6214C129.875 70.3488 129.875 72.6113 129.875 77.1296V80.3754M57.125 80.3754H129.875M73.2917 104.625H89.4583M129.875 88.4587V80.3754" stroke="#565656" stroke-width="8.08333" stroke-linecap="round" stroke-linejoin="round"/>
<path d="M44.5625 44.5625L141.438 141.438M93 162.75C54.4781 162.75 23.25 131.522 23.25 93C23.25 54.4781 54.4781 23.25 93 23.25C131.522 23.25 162.75 54.4781 162.75 93C162.75 131.522 131.522 162.75 93 162.75Z" stroke="url(#paint0_linear_134_596)" stroke-width="15.5" stroke-linecap="round" stroke-linejoin="round"/>
<defs>
<linearGradient id="paint0_linear_134_596" x1="73.1669" y1="55.5645" x2="183.308" y2="127.128" gradientUnits="userSpaceOnUse">
<stop stop-color="#A057FF"/>
<stop offset="1" stop-color="#904CE6"/>
</linearGradient>
</defs>
</svg>
