<svg width="40" height="40" viewBox="0 0 40 40" fill="none" xmlns="http://www.w3.org/2000/svg">
<path d="M17.1796 22.8207L25.2565 14.7438M33.5188 9.81462L26.7011 31.9723C26.0901 33.958 25.7844 34.9513 25.2574 35.2806C24.8003 35.5662 24.2344 35.6139 23.7365 35.4074C23.1625 35.1692 22.6966 34.239 21.7672 32.3802L17.449 23.7437C17.3015 23.4487 17.2276 23.3018 17.1291 23.174C17.0417 23.0606 16.9408 22.9584 16.8274 22.871C16.7025 22.7747 16.5581 22.7025 16.2763 22.5616L7.61985 18.2334C5.76101 17.304 4.83151 16.8388 4.59332 16.2648C4.38676 15.767 4.43387 15.2005 4.71946 14.7435C5.04877 14.2164 6.04203 13.9102 8.02838 13.299L30.186 6.48129C31.7476 6.00079 32.5287 5.76074 33.0562 5.95438C33.5156 6.12305 33.8778 6.4849 34.0465 6.94434C34.24 7.47155 33.9998 8.25227 33.5198 9.81231L33.5188 9.81462Z" stroke="#D9D9D9" stroke-width="3.33333" stroke-linecap="round" stroke-linejoin="round"/>
</svg>
