<svg width="373" height="247" viewBox="0 0 373 247" fill="none" xmlns="http://www.w3.org/2000/svg">
<path d="M150.226 125.156L150.877 126.199L149.129 126.495L150.865 127.472L150.14 128.251L148.46 127.097L148.447 128.611L147.054 128.282L147.29 126.886L145.64 127.312L144.988 126.269L146.729 125.988L144.997 124.99L145.701 124.215L147.38 125.369L147.393 123.855L148.808 124.18L148.569 125.597L150.226 125.156Z" fill="white"/>
<path d="M159.03 123.284L159.682 124.327L157.934 124.623L159.669 125.6L158.944 126.38L157.264 125.226L157.252 126.739L155.858 126.41L156.094 125.014L154.444 125.44L153.792 124.398L155.534 124.117L153.801 123.118L154.505 122.344L156.185 123.498L156.197 121.984L157.612 122.308L157.373 123.726L159.03 123.284Z" fill="white"/>
<path d="M167.835 121.413L168.486 122.456L166.738 122.752L168.474 123.729L167.749 124.508L166.069 123.354L166.056 124.868L164.663 124.539L164.899 123.142L163.248 123.569L162.597 122.526L164.338 122.245L162.605 121.247L163.31 120.472L164.989 121.626L165.002 120.112L166.417 120.437L166.178 121.854L167.835 121.413Z" fill="white"/>
<path d="M183.299 129.376L182.526 128.139L184.598 123.049C185.165 121.713 185.211 120.659 184.73 119.889C184.329 119.246 183.794 118.797 183.116 118.535C182.445 118.273 181.779 118.208 181.129 118.347C179.891 118.61 179.307 119.311 179.377 120.45L177.45 120.015C177.4 119.187 177.625 118.508 178.12 117.97C178.616 117.432 179.31 117.071 180.198 116.882C181.296 116.649 182.451 116.761 183.663 117.217C184.868 117.675 185.807 118.43 186.474 119.498C187.194 120.649 187.195 122.071 186.484 123.761L184.945 127.371L190.89 126.107L191.806 127.574L183.303 129.382L183.299 129.376Z" fill="white"/>
<path d="M195.457 119.168C196.56 119.119 197.62 119.319 198.624 119.772C199.628 120.225 200.411 120.896 200.976 121.8C201.669 122.909 201.774 123.876 201.298 124.699C200.825 125.527 199.959 126.068 198.708 126.334C197.708 126.547 196.694 126.536 195.672 126.306C194.65 126.077 193.737 125.619 192.949 124.941L193.945 123.885C194.989 124.858 196.273 125.176 197.783 124.855C198.594 124.682 199.145 124.359 199.432 123.88C199.711 123.401 199.648 122.831 199.235 122.17C198.822 121.509 198.237 121.043 197.496 120.781C196.75 120.514 195.968 120.467 195.15 120.641L194.703 120.736L193.431 119.956L194.245 115.744L188.406 116.985L187.519 115.567L195.407 113.89L196.23 115.219L195.457 119.168Z" fill="white"/>
<path d="M213.823 118.829L214.705 120.241L213.111 120.58L214.463 122.745L212.715 123.116L211.363 120.952L204.663 122.376L203.78 120.963L203.61 112.146L205.484 111.748L205.655 120.565L210.48 119.539L208.464 116.314L210.213 115.942L212.228 119.168L213.823 118.829Z" fill="white"/>
<path d="M80.2899 186.526C79.5207 186.689 78.7549 186.605 77.9748 186.269C77.2055 185.938 76.6128 185.446 76.215 184.81C75.8172 184.173 75.728 183.574 75.9517 183.032C76.1755 182.49 76.6717 182.13 77.4409 181.967C77.9025 181.868 78.3897 181.875 78.9025 181.986C79.4153 182.096 79.879 182.293 80.2965 182.568L79.8948 182.99C79.5964 182.779 79.2583 182.631 78.8807 182.547C78.5031 182.462 78.1359 182.458 77.7932 182.53C77.2058 182.655 76.8326 182.92 76.6665 183.326C76.5005 183.732 76.5725 184.177 76.8794 184.668C77.1825 185.153 77.6181 185.521 78.1933 185.77C78.7685 186.018 79.3464 186.081 79.9338 185.956C80.2834 185.882 80.5527 185.742 80.7485 185.536C80.9442 185.329 81.0436 185.095 81.0389 184.821L81.8082 184.988C81.803 185.36 81.6582 185.686 81.3948 185.961C81.1244 186.239 80.7584 186.426 80.2899 186.526Z" fill="white"/>
<path d="M84.1453 182.059L84.7747 181.926L86.7371 185.066L86.1077 185.2L85.7706 184.66C85.7135 185.14 85.3915 185.448 84.7901 185.576C84.2866 185.683 83.7546 185.618 83.1971 185.372C82.6397 185.127 82.2154 184.777 81.9275 184.317C81.6395 183.856 81.5789 183.429 81.7347 183.032C81.8906 182.635 82.2257 182.385 82.7292 182.278C83.3306 182.15 83.9139 182.26 84.49 182.611L84.1453 182.059ZM84.5407 185.025C84.9043 184.948 85.1438 184.773 85.263 184.507C85.3821 184.242 85.3305 183.943 85.1335 183.628C84.9365 183.313 84.6439 183.073 84.2628 182.907C83.8816 182.74 83.5095 182.703 83.1389 182.782C82.7753 182.859 82.5428 183.032 82.4306 183.296C82.3222 183.566 82.363 183.86 82.56 184.175C82.7608 184.497 83.0534 184.737 83.4308 184.897C83.8119 185.063 84.177 185.102 84.5407 185.025Z" fill="white"/>
<path d="M86.6918 182.115C86.6591 181.683 86.9085 181.41 87.461 181.292L87.8171 181.862C87.5018 181.916 87.2816 182.045 87.1525 182.244C87.0272 182.449 87.0707 182.721 87.2828 183.061L88.3247 184.728L87.6953 184.862L85.7328 181.721L86.3622 181.588L86.6918 182.115Z" fill="white"/>
<path d="M90.1306 179.365L90.7599 179.231L93.5067 183.627L92.8773 183.761L92.5401 183.221C92.483 183.7 92.1611 184.009 91.5597 184.137C91.0562 184.244 90.5241 184.179 89.9667 183.933C89.4092 183.688 88.9849 183.338 88.697 182.877C88.4091 182.417 88.3484 181.99 88.5043 181.593C88.6601 181.196 88.9952 180.946 89.4987 180.839C90.1001 180.711 90.6835 180.821 91.2596 181.172L90.1306 179.365ZM91.3032 183.587C91.6668 183.51 91.9063 183.335 92.0255 183.07C92.1446 182.804 92.093 182.506 91.896 182.191C91.699 181.875 91.4065 181.635 91.0253 181.469C90.6442 181.303 90.2721 181.265 89.9014 181.344C89.5378 181.421 89.3053 181.594 89.1931 181.859C89.0848 182.129 89.1256 182.422 89.3226 182.738C89.5234 183.059 89.816 183.299 90.1933 183.459C90.5745 183.625 90.9466 183.663 91.3032 183.587Z" fill="white"/>
<path d="M96.7252 177.964L97.3895 177.822L100.136 182.218L99.4719 182.359L98.2368 180.383L95.7753 180.906L97.0103 182.883L96.339 183.025L93.5923 178.63L94.2636 178.487L95.4305 180.354L97.8921 179.831L96.7252 177.964V177.964Z" fill="white"/>
<path d="M103.974 180.956C103.8 181.35 103.448 181.61 102.916 181.723C102.385 181.836 101.839 181.774 101.268 181.531C100.696 181.288 100.272 180.939 99.9801 180.472C99.6884 180.005 99.6277 179.579 99.7975 179.179C99.9712 178.785 100.316 178.526 100.848 178.413C101.379 178.3 101.932 178.361 102.504 178.603C103.075 178.846 103.507 179.194 103.798 179.661C104.083 180.129 104.144 180.556 103.974 180.956ZM102.579 181.184C102.943 181.106 103.175 180.933 103.295 180.667C103.407 180.403 103.366 180.11 103.165 179.788C102.968 179.473 102.676 179.233 102.294 179.067C101.917 178.907 101.541 178.863 101.178 178.94C100.821 179.016 100.588 179.189 100.476 179.453C100.364 179.718 100.405 180.011 100.606 180.332C100.806 180.654 101.095 180.888 101.476 181.054C101.858 181.22 102.223 181.259 102.579 181.184Z" fill="white"/>
<path d="M105.521 181.074L102.657 176.49L103.286 176.356L106.15 180.94L105.521 181.074Z" fill="white"/>
<path d="M107.368 175.701L107.998 175.567L110.744 179.963L110.115 180.097L109.778 179.557C109.721 180.036 109.399 180.345 108.797 180.473C108.294 180.58 107.762 180.515 107.204 180.269C106.647 180.024 106.223 179.674 105.935 179.213C105.647 178.753 105.586 178.326 105.742 177.929C105.898 177.532 106.233 177.282 106.736 177.175C107.338 177.047 107.921 177.157 108.497 177.508L107.368 175.701ZM108.541 179.923C108.905 179.846 109.144 179.671 109.263 179.406C109.382 179.14 109.331 178.842 109.134 178.527C108.937 178.211 108.644 177.971 108.263 177.805C107.882 177.639 107.51 177.601 107.139 177.68C106.776 177.757 106.543 177.93 106.431 178.194C106.323 178.465 106.363 178.758 106.56 179.074C106.761 179.395 107.054 179.635 107.431 179.795C107.812 179.961 108.184 179.999 108.541 179.923Z" fill="white"/>
<path d="M111.318 178.344C111.555 178.61 111.838 178.797 112.174 178.904C112.5 179.006 112.843 179.023 113.185 178.95C113.661 178.849 113.916 178.623 113.939 178.268L114.641 178.414C114.587 178.961 114.203 179.31 113.49 179.462C112.916 179.584 112.349 179.526 111.799 179.293C111.249 179.059 110.818 178.698 110.522 178.225C110.227 177.752 110.155 177.321 110.315 176.929C110.467 176.54 110.83 176.284 111.39 176.165C111.921 176.052 112.457 176.124 112.994 176.374C113.534 176.63 113.944 176.982 114.228 177.437C114.278 177.516 114.324 177.602 114.359 177.684L111.31 178.332L111.318 178.344ZM111.702 176.69C111.366 176.761 111.139 176.905 111.018 177.117C110.896 177.328 110.904 177.58 111.018 177.865L113.438 177.351C113.196 177.066 112.923 176.87 112.608 176.758C112.296 176.652 111.988 176.629 111.702 176.69Z" fill="white"/>
<path d="M114.923 176.115C114.891 175.682 115.14 175.409 115.692 175.292L116.049 175.862C115.733 175.915 115.513 176.044 115.384 176.243C115.259 176.449 115.302 176.721 115.514 177.061L116.556 178.728L115.927 178.862L113.964 175.721L114.594 175.587L114.923 176.115Z" fill="white"/>
<path d="M119.901 174.37C120.327 174.279 120.735 174.323 121.141 174.504C121.544 174.68 121.867 174.968 122.117 175.369L123.322 177.297L122.692 177.43L121.507 175.533C121.348 175.278 121.146 175.094 120.898 174.989C120.65 174.884 120.387 174.857 120.108 174.917C119.793 174.983 119.594 175.122 119.505 175.333C119.415 175.545 119.487 175.825 119.707 176.176L120.748 177.844L120.119 177.977L118.157 174.837L118.786 174.703L119.07 175.158C119.095 174.74 119.376 174.481 119.901 174.37Z" fill="white"/>
<path d="M125.23 173.326L125.859 173.193L127.822 176.333L127.192 176.467L126.855 175.927C126.798 176.407 126.476 176.715 125.875 176.843C125.371 176.95 124.839 176.885 124.282 176.639C123.724 176.394 123.3 176.044 123.012 175.584C122.724 175.123 122.663 174.696 122.819 174.299C122.975 173.902 123.31 173.652 123.814 173.545C124.415 173.417 124.998 173.527 125.575 173.878L125.23 173.326ZM125.625 176.292C125.989 176.215 126.228 176.04 126.347 175.774C126.467 175.509 126.415 175.211 126.218 174.895C126.021 174.58 125.728 174.34 125.347 174.174C124.966 174.008 124.594 173.97 124.223 174.049C123.86 174.126 123.627 174.299 123.515 174.563C123.407 174.833 123.448 175.127 123.645 175.442C123.845 175.764 124.138 176.004 124.515 176.164C124.889 176.332 125.261 176.369 125.625 176.292Z" fill="white"/>
<path d="M130.677 172.079C131.083 171.993 131.484 172.039 131.876 172.209C132.271 172.386 132.59 172.669 132.833 173.057L134.053 175.009L133.423 175.143L132.215 173.209C132.063 172.966 131.876 172.793 131.646 172.691C131.415 172.589 131.185 172.562 130.94 172.614C130.668 172.672 130.5 172.797 130.438 172.989C130.375 173.181 130.439 173.435 130.644 173.762L131.735 175.509L131.105 175.642L129.897 173.708C129.745 173.466 129.558 173.293 129.335 173.189C129.112 173.085 128.888 173.057 128.65 173.108C128.385 173.164 128.21 173.291 128.134 173.485C128.057 173.68 128.118 173.942 128.315 174.257L129.406 176.004L128.777 176.137L126.814 172.997L127.444 172.863L127.705 173.281C127.741 172.896 127.999 172.649 128.468 172.549C128.957 172.445 129.424 172.545 129.864 172.857C129.906 172.443 130.174 172.186 130.677 172.079Z" fill="white"/>
<path d="M134.542 173.408C134.779 173.673 135.062 173.86 135.398 173.967C135.724 174.07 136.067 174.086 136.41 174.013C136.885 173.912 137.14 173.686 137.164 173.331L137.865 173.477C137.811 174.025 137.427 174.374 136.714 174.526C136.14 174.647 135.573 174.589 135.023 174.356C134.474 174.123 134.042 173.761 133.746 173.288C133.451 172.815 133.379 172.384 133.539 171.993C133.692 171.603 134.055 171.348 134.614 171.229C135.146 171.116 135.681 171.187 136.218 171.437C136.758 171.693 137.168 172.046 137.453 172.5C137.502 172.579 137.548 172.666 137.583 172.747L134.534 173.395L134.542 173.408ZM134.933 171.752C134.597 171.823 134.371 171.967 134.249 172.179C134.128 172.39 134.135 172.642 134.249 172.927L136.669 172.413C136.427 172.128 136.154 171.932 135.839 171.82C135.521 171.716 135.22 171.691 134.933 171.752Z" fill="white"/>
<path d="M86.9159 192.185L87.9439 191.966L92.1454 198.69L91.3132 198.867L84.1864 194.688L87.3272 199.714L86.2992 199.932L82.0977 193.209L82.8949 193.039L90.0718 197.235L86.9159 192.185V192.185Z" fill="white"/>
<path d="M98.0042 196.758C97.7408 197.363 97.2 197.753 96.3888 197.925C95.5776 198.098 94.7338 198.003 93.8713 197.636C93.0017 197.272 92.3469 196.731 91.9037 196.022C91.4604 195.312 91.3651 194.653 91.6284 194.047C91.8918 193.442 92.4256 193.054 93.2368 192.881C94.048 192.709 94.8918 192.804 95.7613 193.169C96.6309 193.533 97.2927 194.073 97.7359 194.782C98.1792 195.491 98.2745 196.151 98.0042 196.758ZM95.8812 197.113C96.4336 196.996 96.7999 196.732 96.9729 196.325C97.146 195.917 97.0809 195.471 96.7779 194.986C96.4748 194.501 96.0321 194.134 95.4499 193.887C94.8677 193.64 94.3039 193.575 93.7444 193.694C93.199 193.809 92.8397 194.071 92.6667 194.479C92.4936 194.887 92.5586 195.333 92.8617 195.818C93.1648 196.303 93.6075 196.669 94.1897 196.916C94.7719 197.163 95.3357 197.229 95.8812 197.113Z" fill="white"/>
<path d="M103.282 190.739C103.905 190.606 104.518 190.675 105.112 190.94C105.716 191.21 106.196 191.637 106.572 192.237L108.439 195.226L107.474 195.431L105.625 192.473C105.394 192.103 105.101 191.836 104.755 191.676C104.402 191.517 104.044 191.476 103.674 191.555C103.261 191.643 103.008 191.834 102.904 192.124C102.811 192.418 102.912 192.809 103.219 193.3L104.886 195.968L103.921 196.173L102.072 193.214C101.841 192.844 101.555 192.576 101.216 192.414C100.877 192.253 100.526 192.21 100.163 192.288C99.757 192.374 99.4971 192.567 99.3759 192.867C99.2617 193.166 99.3491 193.56 99.656 194.051L101.323 196.718L100.358 196.923L97.3574 192.122L98.3224 191.916L98.724 192.559C98.7834 191.97 99.173 191.591 99.8932 191.438C100.642 191.279 101.35 191.438 102.034 191.911C102.096 191.3 102.506 190.904 103.282 190.739Z" fill="white"/>
<path d="M111.376 189.163L112.341 188.958L115.341 193.76L114.376 193.965L113.861 193.14C113.776 193.879 113.274 194.343 112.358 194.538C111.582 194.703 110.773 194.6 109.913 194.227C109.061 193.851 108.417 193.315 107.974 192.606C107.531 191.896 107.432 191.244 107.671 190.637C107.909 190.03 108.422 189.646 109.198 189.481C110.114 189.287 111.011 189.453 111.891 189.987L111.376 189.163ZM111.976 193.699C112.536 193.58 112.902 193.317 113.071 192.903C113.24 192.489 113.175 192.043 112.872 191.558C112.569 191.073 112.123 190.701 111.541 190.453C110.958 190.206 110.384 190.136 109.824 190.255C109.272 190.372 108.906 190.636 108.736 191.05C108.563 191.457 108.632 191.91 108.935 192.395C109.238 192.88 109.685 193.252 110.267 193.499C110.853 193.752 111.417 193.818 111.976 193.699Z" fill="white"/>
<path d="M116.478 187.934C117.129 187.796 117.756 187.862 118.371 188.136C118.986 188.411 119.482 188.848 119.86 189.454L121.702 192.401L120.737 192.606L118.922 189.702C118.679 189.314 118.371 189.036 117.99 188.87C117.613 188.709 117.209 188.672 116.782 188.762C116.3 188.865 115.995 189.074 115.864 189.397C115.733 189.72 115.832 190.146 116.17 190.685L117.761 193.232L116.796 193.437L113.795 188.635L114.76 188.43L115.192 189.121C115.243 188.506 115.674 188.105 116.478 187.934Z" fill="white"/>
<path d="M128.973 183.245L133.174 189.969L132.153 190.186L128.868 184.929L128.618 189.131L128.489 189.152L123.655 186.031L126.939 191.287L125.911 191.506L121.71 184.782L122.871 184.535L127.585 187.579L127.815 183.484L128.969 183.239L128.973 183.245Z" fill="white"/>
<path d="M136.327 183.859L137.292 183.654L140.293 188.456L139.328 188.661L138.813 187.836C138.728 188.576 138.226 189.04 137.31 189.234C136.533 189.399 135.724 189.297 134.865 188.923C134.013 188.548 133.369 188.011 132.926 187.302C132.482 186.593 132.384 185.941 132.622 185.334C132.861 184.727 133.374 184.343 134.15 184.178C135.066 183.983 135.962 184.15 136.843 184.684L136.327 183.859ZM136.928 188.395C137.487 188.276 137.853 188.013 138.023 187.599C138.192 187.185 138.127 186.739 137.824 186.254C137.521 185.769 137.074 185.397 136.492 185.15C135.91 184.903 135.335 184.832 134.776 184.951C134.223 185.069 133.857 185.332 133.688 185.746C133.515 186.153 133.584 186.606 133.887 187.091C134.19 187.576 134.636 187.948 135.219 188.195C135.805 188.448 136.368 188.514 136.928 188.395Z" fill="white"/>
<path d="M141.43 182.631C142.08 182.492 142.707 182.558 143.322 182.833C143.938 183.107 144.433 183.544 144.812 184.151L146.653 187.097L145.688 187.302L143.873 184.398C143.631 184.01 143.322 183.732 142.941 183.566C142.564 183.406 142.16 183.368 141.733 183.459C141.251 183.561 140.946 183.771 140.815 184.094C140.684 184.417 140.784 184.842 141.121 185.382L142.712 187.928L141.747 188.133L138.746 183.331L139.711 183.126L140.143 183.817C140.194 183.202 140.625 182.802 141.43 182.631Z" fill="white"/>
<path d="M148.548 185.795L151.493 185.169L151.993 185.969L147.734 186.875L147.381 186.311L148.062 182.265L145.348 182.842L144.848 182.041L148.883 181.184L149.228 181.735L148.548 185.795Z" fill="white"/>
<path d="M157.117 184.193C156.854 184.799 156.313 185.188 155.502 185.361C154.69 185.533 153.847 185.438 152.984 185.072C152.115 184.707 151.46 184.166 151.016 183.457C150.573 182.748 150.478 182.088 150.741 181.482C151.005 180.877 151.538 180.489 152.35 180.316C153.161 180.144 154.005 180.239 154.874 180.604C155.744 180.969 156.405 181.508 156.849 182.217C157.292 182.927 157.38 183.588 157.117 184.193ZM154.994 184.548C155.546 184.431 155.913 184.168 156.086 183.76C156.259 183.352 156.194 182.906 155.891 182.421C155.588 181.936 155.145 181.57 154.563 181.323C153.981 181.076 153.417 181.01 152.857 181.129C152.312 181.245 151.953 181.507 151.779 181.914C151.606 182.322 151.671 182.768 151.975 183.253C152.278 183.738 152.72 184.104 153.302 184.352C153.885 184.599 154.449 184.664 154.994 184.548Z" fill="white"/>
<path d="M163.788 182.775C163.525 183.381 162.984 183.77 162.173 183.943C161.362 184.115 160.518 184.02 159.655 183.654C158.786 183.289 158.131 182.748 157.688 182.039C157.245 181.33 157.149 180.67 157.413 180.064C157.676 179.459 158.21 179.071 159.021 178.898C159.832 178.726 160.676 178.821 161.546 179.186C162.415 179.551 163.077 180.09 163.52 180.799C163.963 181.509 164.052 182.17 163.788 182.775ZM161.658 183.132C162.211 183.014 162.577 182.751 162.75 182.343C162.923 181.936 162.858 181.489 162.555 181.004C162.252 180.519 161.809 180.153 161.227 179.906C160.645 179.659 160.081 179.593 159.522 179.712C158.976 179.828 158.617 180.09 158.444 180.498C158.271 180.905 158.336 181.352 158.639 181.837C158.942 182.322 159.385 182.688 159.967 182.935C160.549 183.182 161.113 183.248 161.658 183.132Z" fill="white"/>
<path d="M164.629 178.757C164.572 178.096 164.967 177.676 165.799 177.499L166.345 178.372C165.858 178.455 165.521 178.65 165.333 178.958C165.138 179.267 165.209 179.685 165.538 180.212L167.129 182.759L166.164 182.964L163.164 178.162L164.129 177.957L164.629 178.757Z" fill="white"/>
<path d="M214.18 71.7327L218.33 81.8467L215.288 82.4933L211.131 72.3807L214.18 71.7327Z" fill="white"/>
<path d="M206.343 79.0581C203.928 77.0304 200.327 75.6803 196.157 75.6875L196.074 75.4785L200.808 74.4722C201.463 74.3537 202.087 74.4271 202.636 74.9765L206.343 79.0581Z" fill="white"/>
<path d="M209.897 72.6503L211.14 83.3616L207.916 84.0468L200.128 76.54C202.775 77.2136 205.526 78.5863 206.864 79.6619L207.811 80.594L206.666 73.337L209.897 72.6503Z" fill="white"/>
<path d="M61.4626 120.341L42.3855 124.396C41.1757 124.653 39.6447 124.003 38.9892 122.954L31.3326 110.701C30.6771 109.652 31.1322 108.58 32.342 108.323L51.4191 104.268C52.6289 104.011 54.1599 104.66 54.8153 105.709L62.472 117.963C63.1382 119.016 62.6794 120.082 61.4626 120.341Z" fill="#F6C859"/>
<path d="M47.887 120.802C47.7891 120.823 47.6608 120.795 47.5626 120.727C47.4207 120.627 47.3857 120.469 47.4845 120.386C47.7663 120.127 48.1001 119.685 48.0517 119.05C47.9925 118.245 47.4059 117.484 47.1964 117.453C47.143 117.444 47.0207 117.552 46.9531 117.621C46.7663 117.792 46.5152 118.024 46.023 117.984C45.5416 117.949 45.1526 117.681 44.967 117.549C43.7416 116.704 41.9616 114.197 41.8202 112.792C41.7755 112.328 41.9139 112.017 42.2321 111.867C42.5573 111.715 42.9413 111.785 43.2543 111.842C43.5139 111.889 43.6345 111.905 43.6785 111.861C43.8469 111.674 43.3361 110.87 42.5848 110.301C41.921 109.797 41.178 109.584 40.6765 109.491C40.5057 109.459 40.3626 109.331 40.3606 109.201C40.3585 109.071 40.4891 108.988 40.6598 109.021C41.2572 109.127 42.1398 109.386 42.9455 109.991C43.7405 110.591 44.6465 111.724 44.2083 112.202C43.9857 112.442 43.5839 112.369 43.2639 112.313C43.0221 112.269 42.791 112.229 42.6389 112.302C42.4315 112.401 42.4114 112.673 42.4347 112.888C42.5578 114.112 44.2227 116.485 45.2991 117.231C45.481 117.357 45.6914 117.491 45.9181 117.512C46.134 117.528 46.2671 117.424 46.4437 117.263C46.6171 117.109 46.807 116.931 47.1695 116.992C47.937 117.117 48.6073 118.266 48.6706 119.166C48.7211 119.931 48.331 120.461 47.9913 120.766C47.9633 120.772 47.9289 120.793 47.887 120.802Z" fill="#7D662D"/>
<path d="M42.2041 113.191L37.309 114.232C37.1621 114.263 36.9718 114.186 36.8885 114.053C36.8051 113.92 36.8596 113.791 37.0135 113.759L41.9086 112.718C42.0555 112.687 42.2458 112.763 42.3291 112.897C42.4124 113.03 42.358 113.158 42.2041 113.191Z" fill="#7D662D"/>
<path d="M44.8565 117.435L39.9613 118.476C39.8145 118.507 39.6242 118.431 39.5408 118.297C39.4613 118.17 39.5119 118.035 39.6658 118.003L44.561 116.962C44.7078 116.931 44.8981 117.007 44.9814 117.141C45.0648 117.274 45.0103 117.402 44.8565 117.435Z" fill="#7D662D"/>
<path d="M53.6001 119.587C53.5582 119.596 53.5124 119.599 53.4591 119.59C52.8618 119.483 51.9791 119.225 51.1734 118.62C50.229 117.907 49.4785 116.782 49.924 116.392C50.135 116.21 50.4765 116.275 50.7787 116.327C51.0916 116.384 51.3081 116.414 51.4558 116.321C51.6207 116.217 51.6222 116.004 51.6201 115.874C51.6276 114.897 50.2882 112.462 49.0214 111.474C48.8061 111.307 48.4867 111.1 48.2186 111.102C48.0529 111.103 47.8824 110.995 47.8378 110.86C47.7932 110.725 47.8908 110.615 48.0566 110.614C48.4657 110.61 48.9147 110.796 49.3967 111.174C50.8351 112.297 52.2375 114.884 52.2358 115.997C52.2396 116.168 52.2301 116.52 51.9072 116.726C51.5704 116.935 51.126 116.858 50.7953 116.798C50.6709 116.776 50.4576 116.739 50.4232 116.76C50.304 116.861 50.6879 117.665 51.5303 118.303C52.1941 118.808 52.9372 119.021 53.4387 119.114C53.6094 119.146 53.7525 119.273 53.7546 119.404C53.7586 119.499 53.698 119.567 53.6001 119.587Z" fill="#7D662D"/>
<path d="M47.0578 111.095C46.9459 111.119 46.8031 111.08 46.6968 110.986C45.1692 109.594 45.8017 108.134 46.121 107.846C46.216 107.757 46.4141 107.77 46.5491 107.872C46.691 107.972 46.726 108.13 46.6272 108.213C46.4844 108.339 45.8161 109.539 47.1196 110.725C47.2443 110.836 47.2507 110.985 47.1304 111.059C47.11 111.077 47.0858 111.089 47.0578 111.095Z" fill="#7D662D"/>
<path d="M54.4419 110.589L49.5468 111.63C49.3999 111.661 49.2096 111.585 49.1263 111.451C49.0429 111.318 49.0974 111.19 49.2512 111.157L54.1464 110.117C54.2933 110.085 54.4835 110.162 54.5669 110.295C54.6502 110.428 54.5958 110.557 54.4419 110.589Z" fill="#7D662D"/>
<path d="M57.0943 114.834L52.1991 115.874C52.0522 115.906 51.862 115.829 51.7786 115.696C51.6991 115.569 51.7497 115.434 51.9036 115.401L56.7988 114.361C56.9456 114.33 57.1359 114.406 57.2192 114.539C57.3026 114.673 57.2481 114.801 57.0943 114.834Z" fill="#7D662D"/>
</g>
<mask id="mask1_282_8491" style="mask-type:alpha" maskUnits="userSpaceOnUse" x="165" y="23" width="202" height="157">
<path d="M263.362 157.571L244.655 178.931L357.841 154.873C365.816 153.178 368.778 146.199 364.458 139.285L298.47 33.6822C294.15 26.7682 284.183 22.5374 276.208 24.2325L177.578 45.197L165.528 71.0893L211.482 80.8783L190.005 110.261L248.177 122.714L224.341 146.423L263.362 157.571Z" fill="#D9D9D9" stroke="black" stroke-width="0.238096"/>
</mask>
<g mask="url(#mask1_282_8491)">
<path d="M298.012 33.5822L364.209 139.52C368.467 146.335 365.545 153.22 357.685 154.891L148.144 199.43C140.287 201.107 130.454 196.933 126.196 190.118L59.9948 84.1742C55.7364 77.3594 58.6589 70.4744 66.5192 68.8036L276.06 24.2643C278.871 23.6668 281.944 23.8173 284.923 24.5783C290.259 25.9167 295.276 29.2047 298.012 33.5822Z" fill="url(#paint1_linear_282_8491)"/>
<path d="M169.863 109.428L170.515 110.47L168.767 110.766L170.503 111.744L169.777 112.523L168.098 111.369L168.085 112.883L166.691 112.554L166.928 111.157L165.277 111.584L164.626 110.541L166.367 110.26L164.634 109.262L165.338 108.487L167.018 109.641L167.031 108.127L168.445 108.452L168.206 109.869L169.863 109.428Z" fill="white"/>
<path d="M178.668 107.556L179.319 108.599L177.571 108.895L179.307 109.872L178.582 110.652L176.902 109.498L176.889 111.011L175.496 110.682L175.732 109.286L174.081 109.712L173.43 108.67L175.171 108.389L173.438 107.39L174.143 106.616L175.822 107.77L175.835 106.256L177.25 106.58L177.011 107.998L178.668 107.556Z" fill="white"/>
<path d="M193.577 104.387L194.229 105.43L192.481 105.726L194.217 106.703L193.491 107.482L191.812 106.328L191.799 107.842L190.405 107.513L190.642 106.117L188.991 106.543L188.339 105.5L190.081 105.22L188.348 104.221L189.052 103.446L190.732 104.6L190.745 103.087L192.159 103.411L191.92 104.829L193.577 104.387Z" fill="white"/>
<path d="M202.381 102.516L203.033 103.559L201.285 103.855L203.021 104.832L202.296 105.611L200.616 104.457L200.603 105.971L199.209 105.642L199.446 104.245L197.795 104.672L197.144 103.629L198.885 103.348L197.152 102.35L197.856 101.575L199.536 102.729L199.549 101.215L200.964 101.54L200.724 102.957L202.381 102.516Z" fill="white"/>
<path d="M211.186 100.644L211.837 101.687L210.089 101.983L211.825 102.96L211.1 103.739L209.42 102.585L209.407 104.099L208.014 103.77L208.25 102.374L206.6 102.8L205.948 101.757L207.689 101.477L205.956 100.478L206.661 99.7035L208.34 100.857L208.353 99.3437L209.768 99.6681L209.529 101.086L211.186 100.644Z" fill="white"/>
<path d="M219.99 98.7728L220.642 99.8156L218.894 100.112L220.629 101.089L219.904 101.868L218.224 100.714L218.212 102.228L216.818 101.899L217.054 100.503L215.404 100.929L214.752 99.8861L216.494 99.6053L214.761 98.6068L215.465 97.8321L217.145 98.9861L217.157 97.4724L218.572 97.7967L218.333 99.2143L219.99 98.7728Z" fill="white"/>
<path d="M235.454 106.736L234.681 105.499L236.753 100.409C237.32 99.0725 237.367 98.0187 236.886 97.2487C236.484 96.606 235.95 96.1564 235.271 95.8953C234.6 95.6327 233.934 95.5683 233.284 95.7065C232.046 95.9696 231.462 96.6706 231.532 97.8096L229.605 97.3745C229.555 96.5471 229.78 95.8675 230.276 95.3294C230.771 94.7914 231.465 94.431 232.353 94.2422C233.451 94.0089 234.606 94.1205 235.818 94.5771C237.024 95.0353 237.963 95.7903 238.629 96.8574C239.349 98.0093 239.35 99.4309 238.639 101.12L237.101 104.731L243.045 103.467L243.962 104.934L235.458 106.742L235.454 106.736Z" fill="white"/>
<path d="M247.613 96.5277C248.715 96.4789 249.775 96.6794 250.779 97.1322C251.783 97.585 252.567 98.2564 253.131 99.1597C253.825 100.269 253.93 101.236 253.453 102.058C252.981 102.887 252.115 103.428 250.863 103.694C249.863 103.907 248.85 103.895 247.827 103.666C246.805 103.437 245.892 102.979 245.105 102.301L246.1 101.245C247.144 102.218 248.428 102.536 249.939 102.215C250.75 102.042 251.3 101.719 251.587 101.239C251.866 100.761 251.803 100.191 251.39 99.5299C250.977 98.869 250.392 98.4026 249.651 98.1412C248.905 97.8738 248.124 97.8271 247.305 98.001L246.858 98.0962L245.586 97.3157L246.4 93.1041L240.561 94.3452L239.675 92.9265L247.563 91.2498L248.385 92.5791L247.613 96.5277Z" fill="white"/>
<path d="M265.978 96.1889L266.861 97.6015L265.266 97.9404L266.619 100.105L264.87 100.477L263.518 98.3121L256.818 99.736L255.936 98.3234L255.766 89.5064L257.64 89.108L257.81 97.925L262.635 96.8994L260.62 93.6739L262.368 93.3023L264.383 96.5278L265.978 96.1889Z" fill="white"/>
<path d="M270.739 91.3582C271.977 91.0951 273.223 91.1874 274.48 91.6412C275.738 92.095 276.711 92.8774 277.411 93.999C278.105 95.1085 278.21 96.0753 277.733 96.8977C277.261 97.7261 276.395 98.2674 275.143 98.5334C274.143 98.746 273.119 98.7301 272.068 98.4797C271.016 98.2294 270.085 97.7405 269.284 97.0177L270.309 95.969C270.828 96.4835 271.429 96.8366 272.111 97.0145C272.792 97.1925 273.491 97.2087 274.219 97.0541C275.044 96.8787 275.602 96.5541 275.881 96.0757C276.16 95.5974 276.097 95.027 275.684 94.3662C275.271 93.7053 274.687 93.2389 273.945 92.9776C273.2 92.7102 272.425 92.6619 271.621 92.8329L267.907 93.6222L264.682 87.6112L271.892 86.0787L272.778 87.4974L267.163 88.691L268.823 91.7655L270.739 91.3582V91.3582Z" fill="white"/>
<path d="M163.473 155.705C163.71 155.97 163.993 156.157 164.33 156.264C164.655 156.367 164.998 156.383 165.341 156.31C165.816 156.209 166.071 155.983 166.095 155.628L166.796 155.774C166.742 156.322 166.358 156.671 165.645 156.823C165.071 156.945 164.504 156.887 163.955 156.653C163.405 156.42 162.973 156.058 162.677 155.585C162.382 155.112 162.31 154.681 162.47 154.29C162.623 153.9 162.986 153.645 163.545 153.526C164.077 153.413 164.613 153.484 165.149 153.734C165.689 153.99 166.1 154.343 166.384 154.797C166.433 154.876 166.479 154.963 166.514 155.044L163.465 155.693L163.473 155.705ZM163.857 154.05C163.521 154.122 163.295 154.266 163.173 154.477C163.052 154.688 163.059 154.941 163.174 155.226L165.593 154.711C165.352 154.426 165.079 154.23 164.763 154.119C164.452 154.013 164.144 153.989 163.857 154.05Z" fill="white"/>
<path d="M167.079 153.475C167.046 153.043 167.295 152.77 167.848 152.652L168.204 153.222C167.889 153.276 167.668 153.405 167.539 153.604C167.414 153.809 167.457 154.082 167.67 154.421L168.711 156.088L168.082 156.222L166.12 153.082L166.749 152.948L167.079 153.475Z" fill="white"/>
<path d="M172.056 151.73C172.483 151.64 172.89 151.683 173.297 151.865C173.699 152.04 174.022 152.329 174.272 152.729L175.477 154.657L174.848 154.791L173.662 152.893C173.503 152.638 173.301 152.455 173.053 152.349C172.805 152.244 172.543 152.217 172.263 152.277C171.948 152.344 171.75 152.482 171.66 152.694C171.57 152.905 171.642 153.185 171.862 153.537L172.904 155.204L172.274 155.338L170.312 152.197L170.941 152.063L171.225 152.518C171.25 152.101 171.532 151.842 172.056 151.73Z" fill="white"/>
<path d="M177.386 150.687L178.015 150.553L179.977 153.694L179.348 153.828L179.011 153.288C178.954 153.767 178.632 154.076 178.03 154.204C177.527 154.311 176.995 154.245 176.437 154C175.88 153.754 175.456 153.405 175.168 152.944C174.88 152.483 174.819 152.057 174.975 151.66C175.131 151.262 175.466 151.013 175.969 150.906C176.571 150.778 177.154 150.887 177.73 151.239L177.386 150.687ZM177.781 153.653C178.145 153.575 178.384 153.401 178.503 153.135C178.622 152.869 178.571 152.571 178.374 152.256C178.177 151.941 177.884 151.701 177.503 151.534C177.122 151.368 176.75 151.33 176.379 151.409C176.015 151.487 175.783 151.66 175.671 151.924C175.562 152.194 175.603 152.488 175.8 152.803C176.001 153.124 176.294 153.364 176.671 153.524C177.045 153.692 177.417 153.73 177.781 153.653Z" fill="white"/>
<path d="M182.833 149.44C183.238 149.354 183.639 149.399 184.031 149.57C184.427 149.747 184.746 150.029 184.988 150.417L186.208 152.369L185.579 152.503L184.37 150.569C184.219 150.326 184.031 150.153 183.801 150.051C183.571 149.949 183.34 149.923 183.096 149.975C182.823 150.033 182.655 150.157 182.593 150.349C182.531 150.541 182.594 150.795 182.799 151.123L183.89 152.869L183.261 153.003L182.052 151.069C181.901 150.826 181.713 150.653 181.49 150.549C181.267 150.446 181.043 150.418 180.806 150.468C180.54 150.525 180.365 150.651 180.289 150.846C180.213 151.041 180.273 151.302 180.47 151.618L181.561 153.364L180.932 153.498L178.97 150.357L179.599 150.223L179.86 150.642C179.897 150.256 180.154 150.009 180.623 149.909C181.112 149.805 181.579 149.905 182.019 150.217C182.061 149.803 182.329 149.547 182.833 149.44Z" fill="white"/>
<path d="M186.697 150.768C186.934 151.034 187.217 151.221 187.554 151.328C187.879 151.43 188.222 151.447 188.565 151.374C189.04 151.273 189.295 151.047 189.319 150.692L190.02 150.838C189.966 151.385 189.582 151.735 188.869 151.886C188.296 152.008 187.729 151.95 187.179 151.717C186.629 151.483 186.197 151.122 185.901 150.649C185.606 150.176 185.535 149.745 185.694 149.354C185.847 148.964 186.21 148.708 186.769 148.589C187.301 148.476 187.837 148.548 188.373 148.798C188.913 149.054 189.324 149.406 189.608 149.861C189.657 149.94 189.703 150.026 189.738 150.108L186.689 150.756L186.697 150.768ZM187.088 149.112C186.752 149.184 186.526 149.328 186.404 149.539C186.283 149.75 186.29 150.003 186.405 150.288L188.824 149.773C188.583 149.488 188.31 149.292 187.994 149.181C187.676 149.077 187.375 149.051 187.088 149.112Z" fill="white"/>
<path d="M163.531 166.523L164.496 166.318L167.497 171.12L166.532 171.325L166.016 170.5C165.932 171.239 165.429 171.703 164.513 171.898C163.737 172.063 162.928 171.96 162.069 171.587C161.216 171.211 160.572 170.675 160.129 169.966C159.686 169.257 159.587 168.604 159.826 167.997C160.065 167.39 160.577 167.007 161.354 166.842C162.27 166.647 163.166 166.814 164.046 167.348L163.531 166.523ZM164.131 171.059C164.691 170.94 165.057 170.677 165.226 170.263C165.396 169.849 165.331 169.403 165.028 168.918C164.724 168.433 164.278 168.061 163.696 167.814C163.114 167.566 162.539 167.496 161.98 167.615C161.427 167.733 161.061 167.996 160.892 168.41C160.719 168.817 160.787 169.27 161.09 169.755C161.393 170.24 161.84 170.612 162.422 170.859C163.008 171.112 163.572 171.178 164.131 171.059Z" fill="white"/>
<path d="M168.633 165.294C169.284 165.156 169.911 165.222 170.526 165.496C171.141 165.771 171.636 166.208 172.015 166.815L173.856 169.761L172.891 169.966L171.077 167.062C170.834 166.674 170.526 166.396 170.145 166.23C169.767 166.07 169.363 166.032 168.937 166.123C168.454 166.225 168.149 166.434 168.019 166.757C167.888 167.081 167.987 167.506 168.324 168.046L169.915 170.592L168.95 170.797L165.95 165.995L166.915 165.79L167.347 166.481C167.398 165.866 167.829 165.465 168.633 165.294Z" fill="white"/>
<path d="M181.127 160.605L185.329 167.329L184.308 167.546L181.023 162.29L180.773 166.491L180.643 166.512L175.81 163.391L179.094 168.648L178.066 168.866L173.865 162.142L175.026 161.896L179.74 164.939L179.97 160.845L181.124 160.599L181.127 160.605Z" fill="white"/>
<path d="M188.482 161.219L189.447 161.014L192.448 165.816L191.483 166.021L190.967 165.197C190.883 165.936 190.38 166.4 189.464 166.594C188.688 166.759 187.879 166.657 187.02 166.283C186.168 165.908 185.524 165.372 185.08 164.662C184.637 163.953 184.539 163.301 184.777 162.694C185.016 162.087 185.528 161.703 186.305 161.538C187.221 161.343 188.117 161.51 188.997 162.044L188.482 161.219ZM189.083 165.755C189.642 165.636 190.008 165.373 190.178 164.959C190.347 164.546 190.282 164.099 189.979 163.614C189.676 163.129 189.229 162.757 188.647 162.51C188.065 162.263 187.49 162.193 186.931 162.311C186.378 162.429 186.012 162.692 185.843 163.106C185.67 163.514 185.738 163.966 186.042 164.451C186.345 164.936 186.791 165.308 187.373 165.555C187.959 165.809 188.523 165.874 189.083 165.755Z" fill="white"/>
<path d="M193.585 159.99C194.235 159.852 194.863 159.918 195.478 160.193C196.093 160.467 196.588 160.904 196.967 161.511L198.808 164.457L197.843 164.662L196.028 161.758C195.786 161.37 195.478 161.092 195.096 160.926C194.719 160.766 194.315 160.728 193.889 160.819C193.406 160.921 193.101 161.13 192.97 161.454C192.839 161.777 192.939 162.202 193.276 162.742L194.867 165.288L193.902 165.493L190.902 160.691L191.867 160.486L192.299 161.177C192.35 160.562 192.781 160.161 193.585 159.99Z" fill="white"/>
<path d="M200.703 163.155L203.647 162.529L204.147 163.329L199.889 164.235L199.536 163.671L200.217 159.625L197.503 160.202L197.003 159.401L201.038 158.544L201.383 159.095L200.703 163.155Z" fill="white"/>
<path d="M209.272 161.553C209.009 162.159 208.468 162.548 207.657 162.721C206.846 162.893 206.002 162.798 205.139 162.432C204.27 162.067 203.615 161.526 203.172 160.817C202.728 160.108 202.633 159.448 202.896 158.843C203.16 158.237 203.694 157.849 204.505 157.676C205.316 157.504 206.16 157.599 207.029 157.964C207.899 158.329 208.561 158.868 209.004 159.577C209.447 160.287 209.536 160.948 209.272 161.553ZM207.149 161.908C207.702 161.791 208.068 161.528 208.241 161.12C208.414 160.712 208.349 160.266 208.046 159.781C207.743 159.296 207.3 158.93 206.718 158.683C206.136 158.436 205.572 158.37 205.013 158.489C204.467 158.605 204.108 158.867 203.935 159.274C203.762 159.682 203.827 160.128 204.13 160.613C204.433 161.098 204.876 161.465 205.458 161.712C206.04 161.959 206.604 162.024 207.149 161.908Z" fill="white"/>
<path d="M215.943 160.135C215.68 160.741 215.139 161.13 214.328 161.303C213.517 161.475 212.673 161.38 211.81 161.014C210.941 160.649 210.286 160.108 209.843 159.399C209.399 158.689 209.304 158.03 209.567 157.424C209.831 156.819 210.365 156.431 211.176 156.258C211.987 156.086 212.831 156.181 213.7 156.546C214.57 156.91 215.232 157.45 215.675 158.159C216.118 158.869 216.206 159.53 215.943 160.135ZM213.813 160.492C214.366 160.374 214.732 160.111 214.905 159.703C215.078 159.296 215.013 158.849 214.71 158.364C214.407 157.879 213.964 157.513 213.382 157.266C212.8 157.019 212.236 156.953 211.676 157.072C211.131 157.188 210.772 157.45 210.599 157.858C210.426 158.265 210.491 158.712 210.794 159.197C211.097 159.682 211.539 160.048 212.122 160.295C212.704 160.542 213.268 160.608 213.813 160.492Z" fill="white"/>
<path d="M216.784 156.117C216.727 155.456 217.122 155.036 217.954 154.859L218.5 155.732C218.013 155.815 217.675 156.01 217.487 156.318C217.292 156.627 217.363 157.045 217.693 157.572L219.284 160.119L218.319 160.324L215.319 155.522L216.284 155.317L216.784 156.117Z" fill="white"/>
<path d="M285.976 130.538L288.332 130.037L288.677 130.589L285.649 131.232L282.902 126.837L285.895 126.201L286.24 126.752L283.925 127.244L284.77 128.596L286.91 128.142L287.251 128.687L285.111 129.142L285.983 130.537L285.976 130.538Z" fill="white"/>
<path d="M292.565 129.762L291.824 129.92L290.06 128.948L289.782 130.354L289.041 130.511L289.414 128.598L287.155 127.354L287.903 127.195L289.515 128.089L289.77 126.798L290.512 126.641L290.155 128.441L292.565 129.762Z" fill="white"/>
<path d="M293.141 125.993C293.652 125.885 294.177 125.951 294.734 126.197C295.292 126.443 295.716 126.792 296.004 127.253C296.292 127.713 296.352 128.14 296.197 128.537C296.041 128.934 295.706 129.184 295.202 129.291C294.601 129.419 294.017 129.31 293.441 128.958L294.563 130.753L293.933 130.887L291.187 126.491L291.816 126.357L292.153 126.897C292.214 126.424 292.54 126.121 293.141 125.993ZM294.796 128.78C295.159 128.703 295.392 128.53 295.504 128.266C295.616 128.001 295.571 127.702 295.374 127.386C295.177 127.071 294.885 126.831 294.504 126.665C294.123 126.499 293.75 126.461 293.394 126.537C293.023 126.616 292.791 126.789 292.672 127.054C292.563 127.325 292.604 127.618 292.801 127.933C293.002 128.255 293.294 128.495 293.672 128.655C294.053 128.821 294.425 128.859 294.796 128.78Z" fill="white"/>
<path d="M295.736 124.885C295.617 124.91 295.49 124.896 295.36 124.841C295.231 124.786 295.136 124.71 295.075 124.613C295.011 124.51 295 124.417 295.038 124.326C295.077 124.235 295.152 124.178 295.278 124.151C295.397 124.126 295.517 124.142 295.64 124.198C295.769 124.253 295.864 124.329 295.928 124.432C295.993 124.535 296.004 124.629 295.962 124.713C295.93 124.803 295.855 124.86 295.736 124.885ZM297.74 128.662L295.778 125.522L296.407 125.388L298.37 128.529L297.74 128.662Z" fill="white"/>
<path d="M298.331 125.577C298.298 125.144 298.548 124.871 299.1 124.754L299.456 125.324C299.141 125.377 298.921 125.506 298.792 125.705C298.666 125.911 298.71 126.183 298.922 126.522L299.964 128.19L299.334 128.324L297.372 125.183L298.001 125.049L298.331 125.577Z" fill="white"/>
<path d="M302.351 124.125L303.022 123.982L303.63 127.63C303.7 128.021 303.65 128.333 303.488 128.581C303.326 128.828 303.06 128.974 302.685 129.033L302.367 128.524C302.826 128.46 303.022 128.178 302.937 127.674L302.935 127.544L299.4 124.752L300.071 124.609L302.785 126.759L302.351 124.125Z" fill="white"/>
<path d="M306.623 121.795C307.315 121.648 308.021 121.738 308.741 122.066C309.461 122.394 310.017 122.866 310.4 123.478C310.783 124.091 310.878 124.661 310.688 125.182C310.499 125.703 310.058 126.037 309.366 126.184L307.387 126.605L304.64 122.209L306.619 121.789L306.623 121.795ZM309.025 125.639C309.542 125.529 309.863 125.282 309.995 124.897C310.127 124.512 310.045 124.089 309.75 123.616C309.454 123.144 309.051 122.79 308.525 122.544C308 122.299 307.481 122.23 306.964 122.34L305.663 122.617L307.72 125.909L309.021 125.633L309.025 125.639Z" fill="white"/>
<path d="M313.568 121.74L314.197 121.607L316.16 124.747L315.531 124.881L315.193 124.341C315.136 124.82 314.814 125.129 314.213 125.257C313.709 125.364 313.177 125.299 312.62 125.053C312.063 124.808 311.638 124.458 311.35 123.997C311.062 123.537 311.002 123.11 311.158 122.713C311.313 122.316 311.649 122.066 312.152 121.959C312.753 121.831 313.337 121.941 313.913 122.292L313.568 121.74ZM313.957 124.707C314.32 124.63 314.56 124.455 314.679 124.19C314.798 123.924 314.746 123.626 314.549 123.311C314.352 122.995 314.06 122.755 313.679 122.589C313.297 122.423 312.925 122.385 312.555 122.464C312.191 122.541 311.959 122.714 311.846 122.979C311.738 123.249 311.779 123.542 311.976 123.858C312.177 124.179 312.469 124.419 312.847 124.579C313.228 124.745 313.593 124.785 313.957 124.707Z" fill="white"/>
<path d="M317.45 121.513L316.485 121.718L317.55 123.421C317.648 123.579 317.751 123.681 317.859 123.727C317.971 123.778 318.094 123.786 318.245 123.761C318.392 123.73 318.567 123.693 318.776 123.635L319.083 124.126C318.568 124.304 318.147 124.352 317.801 124.268C317.455 124.183 317.163 123.943 316.92 123.555L315.856 121.852L315.135 122.005L314.806 121.477L315.526 121.324L315.079 120.609L315.606 120.311L316.155 121.19L317.12 120.985L317.45 121.513V121.513Z" fill="white"/>
<path d="M319.264 122.59C319.502 122.856 319.785 123.043 320.121 123.15C320.447 123.252 320.789 123.269 321.132 123.196C321.608 123.095 321.863 122.869 321.886 122.514L322.588 122.66C322.533 123.207 322.15 123.557 321.436 123.708C320.863 123.83 320.296 123.772 319.746 123.539C319.196 123.305 318.764 122.944 318.469 122.471C318.173 121.998 318.102 121.567 318.262 121.176C318.414 120.786 318.777 120.53 319.337 120.411C319.868 120.298 320.404 120.37 320.94 120.62C321.481 120.876 321.891 121.228 322.175 121.683C322.224 121.762 322.27 121.848 322.306 121.93L319.257 122.578L319.264 122.59ZM319.649 120.936C319.313 121.007 319.086 121.151 318.965 121.363C318.843 121.574 318.851 121.826 318.965 122.111L321.385 121.597C321.143 121.312 320.87 121.116 320.555 121.004C320.243 120.899 319.942 120.873 319.649 120.936Z" fill="white"/>
<path d="M298.437 142.354C298.31 143.102 297.773 143.573 296.829 143.774C295.885 143.975 294.954 143.815 294.031 143.29C293.109 142.765 292.317 141.979 291.657 140.924C290.998 139.869 290.734 138.964 290.864 138.222C290.995 137.48 291.528 137.002 292.472 136.801C293.416 136.601 294.347 136.76 295.27 137.285C296.192 137.81 296.977 138.598 297.637 139.653C298.296 140.708 298.564 141.606 298.437 142.354ZM294.401 142.525C295.027 142.907 295.654 143.035 296.283 142.901C296.913 142.767 297.251 142.434 297.31 141.907C297.368 141.379 297.142 140.699 296.623 139.869C296.103 139.038 295.523 138.426 294.896 138.044C294.27 137.663 293.636 137.536 293.014 137.668C292.384 137.802 292.046 138.135 291.987 138.663C291.929 139.19 292.166 139.875 292.689 140.711C293.204 141.536 293.774 142.143 294.401 142.525Z" fill="white"/>
<path d="M300.491 142.851L300.036 142.124L301.259 139.123C301.595 138.331 301.622 137.714 301.338 137.259C301.103 136.883 300.784 136.614 300.386 136.458C299.988 136.303 299.594 136.27 299.217 136.35C298.483 136.506 298.141 136.922 298.187 137.592L297.043 137.334C297.015 136.845 297.146 136.447 297.44 136.13C297.733 135.814 298.14 135.603 298.665 135.492C299.315 135.354 299.999 135.421 300.706 135.69C301.419 135.957 301.972 136.41 302.362 137.034C302.786 137.713 302.787 138.551 302.364 139.548L301.453 141.678L304.957 140.933L305.498 141.8L300.498 142.863L300.491 142.851Z" fill="white"/>
<path d="M307.522 142.428L306.956 142.562L305.995 132.986L306.561 132.852L307.522 142.428Z" fill="white"/>
<path d="M312.8 135.736C313.455 135.707 314.074 135.822 314.667 136.088C315.261 136.353 315.722 136.749 316.056 137.283C316.465 137.938 316.528 138.508 316.246 138.994C315.963 139.48 315.451 139.802 314.717 139.958C314.122 140.084 313.526 140.08 312.924 139.941C312.314 139.802 311.784 139.537 311.319 139.135L311.909 138.508C312.527 139.077 313.283 139.273 314.178 139.083C314.661 138.981 314.984 138.788 315.149 138.506C315.313 138.224 315.277 137.888 315.035 137.5C314.792 137.112 314.445 136.835 314.008 136.681C313.571 136.527 313.107 136.495 312.625 136.597L312.359 136.654L311.606 136.196L312.088 133.71L308.641 134.443L308.118 133.606L312.768 132.618L313.25 133.401L312.8 135.736Z" fill="white"/>
<path d="M322.891 137.156C322.765 137.904 322.228 138.375 321.283 138.576C320.339 138.776 319.408 138.617 318.486 138.092C317.564 137.567 316.771 136.781 316.112 135.726C315.453 134.671 315.188 133.765 315.319 133.023C315.449 132.281 315.983 131.804 316.927 131.603C317.871 131.403 318.802 131.562 319.724 132.087C320.647 132.612 321.439 133.398 322.098 134.453C322.75 135.51 323.018 136.407 322.891 137.156ZM318.855 137.327C319.482 137.709 320.109 137.836 320.738 137.703C321.367 137.569 321.706 137.236 321.764 136.708C321.823 136.181 321.596 135.501 321.077 134.67C320.558 133.84 319.978 133.228 319.351 132.846C318.724 132.464 318.091 132.338 317.468 132.47C316.839 132.604 316.5 132.937 316.442 133.465C316.383 133.992 316.621 134.677 317.144 135.513C317.659 136.338 318.228 136.945 318.855 137.327Z" fill="white"/>
<path d="M283.326 45.4891L280.969 45.99C280.235 46.1461 279.792 46.4394 279.868 47.1307L280.902 57.0004L284.105 56.3196C284.105 56.3196 283.89 55.0123 283.846 54.7263L287.748 53.8969C288.058 54.2156 289.028 55.2732 289.028 55.2732L291.86 54.6712L283.326 45.4891ZM283.488 52.5564C283.381 51.9405 282.983 49.58 282.983 49.58C282.983 49.58 282.892 48.9536 282.82 48.5707L283.545 49.3643C283.545 49.3643 285.583 51.5479 286.013 52.0198L283.488 52.5564Z" fill="white"/>
<path d="M272.456 50.8492C272.733 51.3054 273.58 51.4688 274.93 51.69C277.117 52.0081 278.462 52.677 279.137 53.7834C280.374 55.8008 279.105 57.5473 275.895 58.2295C274.524 58.5073 273.051 58.5457 272.174 58.4366L271.248 56.1678L271.738 56.2422C272.961 56.3874 273.707 56.4007 274.93 56.1406C275.804 55.9548 276.556 55.4585 276.158 54.8083C275.896 54.3763 275.307 54.1579 273.819 53.9316C272.371 53.7176 270.354 53.2671 269.497 51.8696C268.333 49.981 269.633 48.2074 272.647 47.5668C273.828 47.3156 274.912 47.3256 275.642 47.3903L276.544 49.5819L276.203 49.5307C275.511 49.451 274.674 49.4162 273.681 49.6409C272.492 49.8936 272.206 50.449 272.456 50.8492Z" fill="white"/>
<path d="M266.336 49.0935L270.485 59.2076L267.443 59.8542L263.287 49.7416L266.336 49.0935Z" fill="white"/>
<path d="M258.5 56.4187C256.084 54.391 252.483 53.0409 248.313 53.0481L248.23 52.8391L252.964 51.8328C253.619 51.7143 254.243 51.7876 254.792 52.3371L258.5 56.4187Z" fill="white"/>
<path d="M262.053 50.0106L263.296 60.7219L260.072 61.4071L252.284 53.9003C254.931 54.574 257.682 55.9467 259.02 57.0223L259.966 57.9543L258.822 50.6974L262.053 50.0106Z" fill="white"/>
</g>
<defs>
<linearGradient id="paint0_linear_282_8491" x1="86.5022" y1="254.867" x2="187.131" y2="47.2454" gradientUnits="userSpaceOnUse">
<stop offset="0.321048" stop-color="#703AB3"/>
<stop offset="0.671572" stop-color="#A057FF"/>
<stop offset="1" stop-color="#B67FFF"/>
</linearGradient>
<linearGradient id="paint1_linear_282_8491" x1="138.658" y1="232.227" x2="239.286" y2="24.6055" gradientUnits="userSpaceOnUse">
<stop offset="0.321048" stop-color="#703AB3"/>
<stop offset="0.671572" stop-color="#A057FF"/>
<stop offset="1" stop-color="#B67FFF"/>
</linearGradient>
</defs>
</svg>
