<svg width="24" height="15" viewBox="0 0 24 15" fill="none" xmlns="http://www.w3.org/2000/svg">
<g clip-path="url(#clip0_1637_1345)">
<path d="M0 0H24V15H0V0Z" fill="white"/>
<path d="M0 0H24V1.15351H0V0ZM0 2.30702H24V3.46053H0V2.30702ZM0 4.61403H24V5.76754H0V4.61403ZM0 6.92105H24V8.07456H0V6.92105ZM0 9.23246H24V10.386H0V9.23246ZM0 11.5395H24V12.693H0V11.5395ZM0 13.8465H24V15H0V13.8465Z" fill="#D80027"/>
<path d="M0 0H12V8.07456H0V0Z" fill="#2E52B2"/>
<path d="M2.2363 6.09211L2.04916 5.53071L1.84331 6.09211H1.22577L1.72635 6.42983L1.53922 6.99124L2.04916 6.64475L2.54507 6.99124L2.35325 6.42983L2.8632 6.09211H2.2363ZM4.87021 6.09211L4.6784 5.53071L4.48191 6.09211H3.86437L4.36495 6.42983L4.17782 6.99124L4.6784 6.64475L5.18366 6.99124L4.99653 6.42983L5.49711 6.09211H4.87021ZM7.51349 6.09211L7.31232 5.53071L7.12518 6.09211H6.49361L7.00823 6.42983L6.81173 6.99124L7.31232 6.64475L7.82694 6.99124L7.63045 6.42983L8.13103 6.09211H7.51349ZM10.1427 6.09211L9.95559 5.53071L9.7591 6.09211H9.13688L9.64214 6.42983L9.45501 6.99124L9.95559 6.64475L10.4609 6.99124L10.2597 6.42983L10.7743 6.09211H10.1427ZM4.6784 3.30264L4.48191 3.86404H3.86437L4.36495 4.21054L4.17782 4.76317L4.6784 4.42106L5.18366 4.76317L4.99653 4.21054L5.49711 3.86404H4.87021L4.6784 3.30264ZM2.04916 3.30264L1.84331 3.86404H1.22577L1.72635 4.21054L1.53922 4.76317L2.04916 4.42106L2.54507 4.76317L2.35325 4.21054L2.8632 3.86404H2.2363L2.04916 3.30264ZM7.31232 3.30264L7.12518 3.86404H6.49361L7.00823 4.21054L6.81173 4.76317L7.31232 4.42106L7.82694 4.76317L7.63045 4.21054L8.13103 3.86404H7.51349L7.31232 3.30264ZM9.95559 3.30264L9.7591 3.86404H9.13688L9.64214 4.21054L9.45501 4.76317L9.95559 4.42106L10.4609 4.76317L10.2597 4.21054L10.7743 3.86404H10.1427L9.95559 3.30264ZM2.04916 1.08334L1.84331 1.63597H1.22577L1.72635 1.98247L1.53922 2.53948L2.04916 2.19299L2.54507 2.53948L2.35325 1.98247L2.8632 1.63597H2.2363L2.04916 1.08334ZM4.6784 1.08334L4.48191 1.63597H3.86437L4.36495 1.98247L4.17782 2.53948L4.6784 2.19299L5.18366 2.53948L4.99653 1.98247L5.49711 1.63597H4.87021L4.6784 1.08334ZM7.31232 1.08334L7.12518 1.63597H6.49361L7.00823 1.98247L6.81173 2.53948L7.31232 2.19299L7.82694 2.53948L7.63045 1.98247L8.13103 1.63597H7.51349L7.31232 1.08334ZM9.95559 1.08334L9.7591 1.63597H9.13688L9.64214 1.98247L9.45501 2.53948L9.95559 2.19299L10.4609 2.53948L10.2597 1.98247L10.7743 1.63597H10.1427L9.95559 1.08334Z" fill="white"/>
</g>
<defs>
<clipPath id="clip0_1637_1345">
<rect width="24" height="15" rx="3" fill="white"/>
</clipPath>
</defs>
</svg>
