<svg width="40" height="40" viewBox="0 0 40 40" fill="none" xmlns="http://www.w3.org/2000/svg">
<path d="M7.91319 1L7.66146 2.25868C7.66146 2.25868 6 9.84223 6 13.8889C6 21.3277 11.6641 27.4701 18.8889 28.2882V34.8333H10.8333V38.0556H30.1667V34.8333H22.1111V28.2882C29.3359 27.4701 35 21.3277 35 13.8889C35 9.83594 33.3385 2.25868 33.3385 2.25868L33.0868 1H7.91319ZM10.5816 4.22222H30.4184C30.5694 5.0089 30.9533 6.99132 31.2743 9.05556H12.4444V12.2778H31.6771C31.7274 12.8379 31.7778 13.4421 31.7778 13.8889C31.7778 20.1382 26.7493 25.1667 20.5 25.1667C14.2507 25.1667 9.22222 20.1382 9.22222 13.8889C9.22222 11.1701 10.2984 5.68229 10.5816 4.22222Z" fill="#D9D9D9"/>
</svg>
