<svg width="673" height="449" viewBox="0 0 673 449" fill="none" xmlns="http://www.w3.org/2000/svg">
<rect x="34.5" y="34.5" width="603.75" height="379.5" rx="49.5938" stroke="#2C2C2C" stroke-width="69"/>
<path d="M401.624 177.138C401.624 177.58 401.611 194.239 401.587 194.674C400.885 207.135 390.278 217.029 377.296 217.029C364.314 217.029 353.706 207.135 353.005 194.674C352.981 194.239 352.968 103.941 352.968 103.5" stroke="#2C2C2C" stroke-width="41.6171" stroke-linecap="round" stroke-linejoin="round"/>
<path d="M207.001 230.641C207.001 231.595 207.025 248.857 207.074 249.798C208.477 276.734 229.691 298.121 255.656 298.121C281.62 298.121 302.835 276.734 304.237 249.798C304.286 248.857 304.311 104.454 304.311 103.5" stroke="#2C2C2C" stroke-width="41.6171" stroke-linecap="round" stroke-linejoin="round"/>
<path d="M450.277 217.031C450.277 288.689 392.187 346.779 320.53 346.779" stroke="#2C2C2C" stroke-width="41.6171" stroke-linecap="round" stroke-linejoin="round"/>
<path d="M385.405 265.682H385.538" stroke="#2C2C2C" stroke-width="41.6171" stroke-linecap="round" stroke-linejoin="round"/>
<path d="M352.968 265.682H353.101" stroke="#2C2C2C" stroke-width="41.6171" stroke-linecap="round" stroke-linejoin="round"/>
</svg>
