<svg width="45" height="30" viewBox="0 0 45 30" fill="none" xmlns="http://www.w3.org/2000/svg">
<rect x="2.27919" y="2.27919" width="39.8858" height="25.071" rx="3.27633" stroke="#2C2C2C" stroke-width="4.55837"/>
<path d="M19.9629 7.33789C21.2652 6.69951 22.7147 6.51913 24.1191 6.83203C25.5204 7.14436 26.7832 7.92569 27.7607 9.04297C28.1983 9.54338 28.1476 10.3044 27.6475 10.7422C27.147 11.18 26.3861 11.1292 25.9482 10.6289C25.2802 9.86535 24.4572 9.37475 23.5957 9.18262C22.7369 8.99127 21.8444 9.09713 21.0225 9.5C20.1966 9.90495 19.4619 10.6011 18.9326 11.5303C18.9275 11.5392 18.923 11.5486 18.918 11.5576H22.7588L22.8818 11.5635C23.4887 11.6253 23.9627 12.1386 23.9629 12.7617C23.9629 13.385 23.4889 13.8982 22.8818 13.96L22.7588 13.9658H18.1562C18.1288 14.2122 18.1123 14.4615 18.1123 14.7129C18.1123 14.964 18.1288 15.213 18.1562 15.459H22.7588C23.4235 15.4592 23.9627 15.9984 23.9629 16.6631C23.9628 17.3279 23.4235 17.867 22.7588 17.8672H18.918C18.923 17.8761 18.9275 17.8856 18.9326 17.8945C19.4619 18.8236 20.1967 19.5199 21.0225 19.9248C21.8444 20.3277 22.7369 20.4335 23.5957 20.2422C24.4572 20.0501 25.2802 19.5595 25.9482 18.7959C26.3861 18.2956 27.147 18.2448 27.6475 18.6826C28.1476 19.1205 28.1983 19.8815 27.7607 20.3818C26.7832 21.4991 25.5204 22.2804 24.1191 22.5928C22.7147 22.9057 21.2652 22.7253 19.9629 22.0869C18.6646 21.4504 17.5859 20.3965 16.8398 19.0869C16.6181 18.6976 16.4284 18.289 16.2705 17.8672H14.9561C14.2912 17.8671 13.7521 17.3279 13.752 16.6631C13.7522 15.9983 14.2913 15.459 14.9561 15.459H15.7354C15.7151 15.2114 15.7041 14.9625 15.7041 14.7129C15.7041 14.463 15.7151 14.2137 15.7354 13.9658H14.9561C14.2911 13.9658 13.752 13.4267 13.752 12.7617C13.7522 12.097 14.2913 11.5577 14.9561 11.5576H16.2695C16.4275 11.1356 16.618 10.7273 16.8398 10.3379C17.5859 9.02823 18.6646 7.97438 19.9629 7.33789Z" fill="#2C2C2C"/>
</svg>
